HIERARCHY
ROOT Pelvis
{
	OFFSET 0.000000 0.000000 0.000000
	CHANNELS 6 Xposition Yposition Zposition Xrotation Yrotation Zrotation
	JOINT LeftUpLeg_virtual
	{
		OFFSET 0.000000 0.000000 0.000000
		CHANNELS 3 Xrotation Yrotation Zrotation
		JOINT LeftUpLeg
		{
			OFFSET 18.735201 -5.666702 -4.541200
			CHANNELS 3 Xrotation Yrotation Zrotation
			JOINT LeftLeg
			{
				OFFSET -0.021200 -31.938179 0.493100
				CHANNELS 3 Xrotation Yrotation Zrotation
				JOINT LeftFoot
				{
					OFFSET 0.021200 -31.938179 -4.336299
					CHANNELS 3 Xrotation Yrotation Zrotation
					JOINT LeftToeBase
					{
						OFFSET 0.943001 -26.722000 15.023500
						CHANNELS 3 Xrotation Yrotation Zrotation
						End Site
						{
							OFFSET 0 0 0
						}
					}
				}
			}
		}
	}
	JOINT RightUpLeg_virtual
	{
		OFFSET 0.000000 0.000000 0.000000
		CHANNELS 3 Xrotation Yrotation Zrotation
		JOINT RightUpLeg
		{
			OFFSET -18.735201 -5.666702 -4.541200
			CHANNELS 3 Xrotation Yrotation Zrotation
			JOINT RightLeg
			{
				OFFSET 0.018946 -31.938133 0.493100
				CHANNELS 3 Xrotation Yrotation Zrotation
				JOINT RightFoot
				{
					OFFSET -0.018946 -31.938126 -4.336299
					CHANNELS 3 Xrotation Yrotation Zrotation
					JOINT RightToeBase
					{
						OFFSET -0.943001 -26.722004 15.023500
						CHANNELS 3 Xrotation Yrotation Zrotation
						End Site
						{
							OFFSET 0 0 0
						}
					}
				}
			}
		}
	}
	JOINT Hips_virtual
	{
		OFFSET 0.000000 0.000000 0.000000
		CHANNELS 3 Xrotation Yrotation Zrotation
		JOINT Hips
		{
			OFFSET -0.000000 -0.000000 -0.000000
			CHANNELS 3 Xrotation Yrotation Zrotation
			JOINT Spine
			{
				OFFSET 0.000000 10.199997 -0.299500
				CHANNELS 3 Xrotation Yrotation Zrotation
				JOINT Spine1
				{
					OFFSET 0.000000 11.900002 -1.516600
					CHANNELS 3 Xrotation Yrotation Zrotation
					JOINT Spine2
					{
						OFFSET 0.000000 13.600006 -2.842500
						CHANNELS 3 Xrotation Yrotation Zrotation
						JOINT Neck_virtual
						{
							OFFSET 0.000000 0.000000 0.000000
							CHANNELS 3 Xrotation Yrotation Zrotation
							JOINT Neck
							{
								OFFSET 0.000000 9.624100 -2.890100
								CHANNELS 3 Xrotation Yrotation Zrotation
								JOINT Head
								{
									OFFSET 0.000000 14.068802 -1.351900
									CHANNELS 3 Xrotation Yrotation Zrotation
									End Site
									{
										OFFSET 0 0 0
									}
								}
							}
						}
						JOINT LeftShoulder_virtual
						{
							OFFSET 0.000000 0.000000 0.000000
							CHANNELS 3 Xrotation Yrotation Zrotation
							JOINT LeftShoulder
							{
								OFFSET 15.263000 10.923401 -0.547700
								CHANNELS 3 Xrotation Yrotation Zrotation
								JOINT LeftArm
								{
									OFFSET 25.438599 -2.830597 -13.032500
									CHANNELS 3 Xrotation Yrotation Zrotation
									JOINT LeftForeArm
									{
										OFFSET 29.960503 0.000000 0.000000
										CHANNELS 3 Xrotation Yrotation Zrotation
										JOINT LeftHand
										{
											OFFSET 27.849251 0.000000 0.000000
											CHANNELS 3 Xrotation Yrotation Zrotation
											End Site
											{
												OFFSET 0 0 0
											}
										}
									}
								}
							}
						}
						JOINT RightShoulder_virtual
						{
							OFFSET 0.000000 0.000000 0.000000
							CHANNELS 3 Xrotation Yrotation Zrotation
							JOINT RightShoulder
							{
								OFFSET -15.263000 10.923401 -0.547700
								CHANNELS 3 Xrotation Yrotation Zrotation
								JOINT RightArm
								{
									OFFSET -25.438599 -2.830597 -13.032500
									CHANNELS 3 Xrotation Yrotation Zrotation
									JOINT RightForeArm
									{
										OFFSET -29.960503 0.000000 0.000000
										CHANNELS 3 Xrotation Yrotation Zrotation
										JOINT RightHand
										{
											OFFSET -27.849251 0.000000 0.000000
											CHANNELS 3 Xrotation Yrotation Zrotation
											End Site
											{
												OFFSET 0 0 0
											}
										}
									}
								}
							}
						}
					}
				}
			}
		}
	}
}
MOTION
Frames: 5
Frame Time: 0.03333333
-2.529503 83.444214 1.048891 0.000000 0.000000 0.000000 9.511085 -61.528195 10.139692 -41.485626 6.898398 29.341615 42.476380 -8.855471 1.133462 -6.285690 -1.073339 -21.274702 0.000000 0.000000 0.000000 9.511085 -61.528195 10.139692 -31.349243 -15.813428 -39.178115 41.611524 6.255672 -4.187889 -15.613017 -2.030437 28.893148 0.000000 0.000000 0.000000 9.511085 -61.528195 10.139692 0.000000 0.000001 0.000000 15.063789 -0.418059 -4.284001 5.872407 0.563923 -2.798210 0.000000 0.000000 0.000000 5.868714 0.648185 -2.860163 -0.718880 0.306353 0.742034 0.000000 0.000000 0.000000 5.868714 0.648185 -2.860163 1.828098 -3.192691 -12.271570 -39.387416 26.350492 -34.911098 0.429376 -46.808448 0.416218 0.000000 0.000000 0.000000 5.868714 0.648185 -2.860163 0.632604 7.257351 8.700391 7.935999 -9.680137 53.429889 -22.867429 36.194675 17.955435 0.000000 0.000000 0.000000 
-2.080410 83.048584 0.664040 0.000000 0.000000 0.000000 9.922302 -55.239510 8.137293 -47.259155 2.646834 28.656731 42.920028 -9.840602 1.398940 -3.287979 -4.126060 -20.784078 0.000000 0.000000 0.000000 9.922302 -55.239510 8.137293 -29.452158 -16.645857 -37.794592 44.582598 3.030470 -1.914650 -16.995464 -2.682954 27.968213 0.000000 0.000000 0.000000 9.922302 -55.239510 8.137293 0.000000 0.000001 0.000000 18.427065 -0.603227 -3.536042 7.295536 -0.352599 -0.796533 0.000000 0.000000 0.000000 7.297471 -0.185246 -0.836848 -1.879204 0.246949 0.578467 0.000000 0.000000 0.000000 7.297471 -0.185246 -0.836848 3.590640 -8.212481 -8.338660 -17.336425 15.897248 -30.473733 -15.109915 -56.231984 -14.869716 0.000000 0.000000 0.000000 7.297471 -0.185246 -0.836848 2.195473 10.570688 6.739749 12.334680 -2.089137 49.300613 -23.008769 37.026790 18.727875 0.000000 0.000000 0.000000 
-2.051557 82.213333 0.846403 0.000000 0.000000 0.000000 8.499075 -43.222004 5.971961 -53.369391 -0.391439 23.140208 40.186750 -14.531769 1.044406 2.736048 -7.091686 -18.943246 0.000000 0.000000 0.000000 8.499075 -43.222004 5.971961 -21.816594 -20.417937 -38.581174 44.527229 -2.221538 1.016013 -18.121930 -4.479441 32.411440 0.000000 0.000000 0.000000 8.499075 -43.222004 5.971961 0.000000 0.000003 0.000000 19.043264 -0.528819 -1.677158 8.434709 -1.248285 0.996158 0.000000 0.000000 0.000000 8.432946 -1.053498 0.978030 -1.005533 -0.113007 1.134085 0.000000 0.000000 0.000000 8.432946 -1.053498 0.978030 3.416878 -8.568152 -4.408956 -14.803030 11.945506 -33.781740 -16.458821 -59.708824 -14.596242 0.000000 0.000000 0.000000 8.432946 -1.053498 0.978030 2.138312 11.266877 6.137825 17.411412 3.777398 45.935945 -16.048061 34.606776 15.226665 0.000000 0.000000 0.000000 
-2.481416 81.841057 1.732798 0.000000 0.000000 0.000000 5.157955 -29.726609 5.690012 -53.544114 2.529234 14.886682 31.045775 -19.253578 -0.076173 11.037042 -12.320739 -16.871792 0.000000 0.000000 0.000000 5.157955 -29.726609 5.690012 -12.244093 -24.165993 -38.746922 45.673868 -7.809030 2.390305 -19.696259 -6.082104 33.924300 0.000000 0.000000 0.000000 5.157955 -29.726609 5.690012 0.000000 0.000001 0.000000 17.947015 0.223575 -1.697931 7.663527 -0.055120 1.868100 0.000000 0.000000 0.000000 7.656324 0.145393 1.807644 2.320371 -0.871592 2.441733 0.000000 0.000000 0.000000 7.656324 0.145393 1.807644 1.265622 -7.131524 -5.657121 -23.592600 7.588126 -38.951312 11.776950 -59.937116 11.769767 0.000000 0.000000 0.000000 7.656324 0.145393 1.807644 0.254905 10.476041 11.937815 21.048082 3.074641 42.497731 -10.393986 28.226100 14.523735 0.000000 0.000000 0.000000 
-3.209594 82.343513 3.169365 0.000000 0.000000 0.000000 -1.097024 -17.893537 4.290699 -47.151412 7.967621 8.753324 21.014380 -25.782159 -1.588919 18.379356 -18.033134 -15.011509 0.000000 0.000000 0.000000 -1.097024 -17.893537 4.290699 0.834661 -25.124164 -32.456687 47.488154 -15.305201 0.994112 -18.755491 -6.394324 32.368816 0.000000 0.000000 0.000000 -1.097024 -17.893537 4.290699 0.000000 -0.000001 0.000000 16.766195 1.959880 -1.614752 5.284550 2.633932 2.560246 0.000000 0.000000 0.000000 5.269076 2.814639 2.432384 7.418327 -1.423164 4.828270 0.000000 0.000000 0.000000 5.269076 2.814639 2.432384 0.907824 -6.380195 -5.024939 -28.312101 3.762125 -48.592933 23.186785 -54.716488 21.547978 0.000000 0.000000 0.000000 5.269076 2.814639 2.432384 -0.419584 12.460901 21.415910 25.186307 -1.964541 37.765199 1.735767 22.440327 11.670352 0.000000 0.000000 0.000000 
